<svg version="1.1" id="Camada_1" xmlns="http://www.w3.org/2000/svg" x="0" y="0" viewBox="0 0 1476.9 1500" style="enable-background:new 0 0 1476.9 1500" xml:space="preserve"><style>.st0{fill:#397657}.st1{fill:#fff}</style><path class="st0" d="M18.8 744.3c0-399.1 323.6-722.7 722.7-722.7s722.7 323.6 722.7 722.7c0 399.2-323.6 722.7-722.7 722.7-399.2 0-722.7-323.6-722.7-722.7"/><path class="st1" d="M40.1 744.3c0-387.4 314-701.4 701.4-701.4s701.4 314 701.4 701.4-314 701.4-701.4 701.4S40.1 1131.6 40.1 744.3"/><path class="st0" d="M62.9 744.3c0-374.7 303.8-678.5 678.6-678.5 374.7 0 678.5 303.8 678.5 678.5 0 374.8-303.8 678.5-678.5 678.5-374.8 0-678.6-303.8-678.6-678.5"/><path class="st1" d="M322.1 741.4c0-230.8 187.1-417.9 417.9-417.9s417.8 187.1 417.8 417.9c0 230.8-187.1 417.8-417.8 417.8s-417.9-187-417.9-417.8M806 125.5c11.4 10.3 14.7 23.8 14.1 38.8-3.2 10.6-9.1 20.9-18.5 28.2 11.5 8.5 22.9 17.3 24.7 32.6 3.2 15-1.2 28.5-9.7 39.6-17.9 20.3-46.4 15-72.2 15.8l-68.3 1.8-.5-6.2-7-155-.3-3.4c44.9-.3 97.7-11.9 137.7 7.8m127.2 21.9c-12.1 34.8-27.9 69.2-36.4 105.9-1 9.8 5.4 18.8 15 21.2 7.2 4 17.5 4.7 22.9 0 23.2-32.6 34.2-73.1 48.8-109.7 18.5 6.5 32.9 15.7 50.8 22.5-19.1 40.5-30.9 88.3-57.3 121.6-19.1 16.7-49.3 12.6-72.2 7-26.1-9.4-54.6-26.1-62.6-55.5-6.2-20.1 21.7-89.1 37-130.4l54 17.4"/><path class="st1" d="M509.9 340.5 471.2 366c-14.5-7.6-22.9-12.8-33.5-17.6l-42.9 36.1c4.4 10.6 10 23.5 14.7 35.2l-38.3 42.9-3.1-6.8-67.9-161.2 62-53.3 5 3.1c48.6 29.7 98.6 64.7 147.8 92.7l-5.1 3.4m9.7-5.9C499.2 285 474.3 227 455.9 180.4c46.7-18.8 114.3-65.1 156-22 10.6 11.7 12 28.2 12.3 43.2-2.6 9.7-5 19.4-11.4 27.3 13.9 17.2 39.8 36.6 57.7 53.7l-2.2.7-52.9 11.7c-18.8-15.1-29.5-25.8-45.8-37-7.1.9-11.9 5-18.5 7.9l18.2 41.7-49.7 27"/><path class="st0" d="M760.2 152.8c4.1 4.4 3.2 13.5.9 18.5-7.6 8.8-21.7 8.5-33.5 7 .9-10-2.8-19.7-2.1-29.9 10 1.5 27.3-3.5 34.7 4.4m-193.9 40.5c2.9 7.3 3.1 19.3-3.2 23.7L534 229.3c-7.3-13.3-10.3-22.5-15.3-33.3 13.6-5 36.7-25.3 47.6-2.7m203.6 26.5c2.3 10.3-2.3 20.9-12.3 22.9-9.4 1.4-16.4.6-26.4.9-1.5-10.6-2.3-24.7-1.5-33.5 13.4 1.7 33.7-5.6 40.2 9.7"/><path class="st1" d="M1166.3 277c10 12.3 16.8 27.6 21.2 43.2-12.3 6.6-21.7 14.1-33.5 19.4-2.9-18.2-12.9-36.7-30.8-45.8-8.5-5-21.2-5.9-30.8-2.7-15 5.6-27.9 18.5-33.5 33.5-5 14.4.6 28.5 8.8 39.6 11.4 12.9 26.7 19.7 44 20.3-7.8 12.8-12 20.8-19.4 30.8-28.8-4.1-55.8-20-72.2-46.7-14.1-22.6-15-57.3-2.6-81.1 12.9-26.1 38.5-42.9 66-46.7 33.2-1.1 63.2 12.1 82.8 36.2"/><path class="st0" d="M403.3 326.4c-8.3 7.7-17.1 14.7-26.4 21.1-7.1-16.7-13.8-31.7-21.2-50.2 16.9 9 31.7 19.4 47.6 29.1"/><path class="st1" d="M1254.5 381c-13.5 13.5-31.4 25-45.8 37.9 22.9 5 48.8 4.1 72.3 7.9 10.6 15.3 16.2 30 26.4 48.5l-86.3-6.2c-19.1 29.9-36.4 60.5-52.9 91.6-10.3-15-18.2-34.3-28.2-51.1 11.2-22.6 25.7-46.6 36.9-69.2-19.2 11.9-36.1 27.3-55.7 39.6l-30.5-41c41.1-35.2 85.5-66.7 128.6-98.7l3.5-1.3 31.7 42M285 370.1c-7.8 16.2-18.1 27.2-25.2 42.6l100.4 66.1c-5.3 15-16.7 29.7-26.4 44l-103.1-64.3c-9.2 12.2-15.9 24.7-25.1 40.2-13.5-8.9-23.1-14.8-33.9-22.6 25.6-42.6 49.8-82.5 78-126.8l35.3 20.8"/><path d="M567.5 763c.2 7-.5 13.9-2.1 20.7-15.6 31.4-40.8 59-44.9 95.2-17.9 11.4-32.6 31.4-58.2 24.7-.9 6.7 1.2 17 3.5 24.6-20.3-.9-34.1 14.1-51.1 21.2-9.1-2.9-11.4-14.7-15-22.9 20-6.7 34.3-26.7 57.3-26.4 2.7-7.4-1.5-14.1-2.7-21.2-28.5-12.7-73.7 62.5-77.5-2.7 28.5-1.8 46.7-28.2 74.9-30.8l.9-21.2c-32-3.2-52.6 29.7-84.6 26.4l-7.1-28.2c37 2.3 59.1-30.8 94.3-32.6 4.7-6.2 5.3-15.3 6.2-23.8-38.5-5-64.9 37.6-105.7 24.7 0 0-1.4-17.7-2.2-27.7h214"/><path d="M612.7 763c1.3 15.6-2.5 31.2-17.3 47.2-21.2 24.9-42.6 56.4-27.3 89.9 16.2 37 67 65.8 44.9 111.9-12 29.1-40.8 51.1-39.6 85.5-7.6-3.2-15.5-6.5-22-12.3 0-43.8 62.2-71.1 32.6-117.2-2.6 9.1-3.2 21.4-5.3 31.7-10.3 26.7-32.3 48.1-40.5 75.8-13.8-5.3-28.2-16.5-39.6-28.2l15.9-9.7c-1.8-5.9-6.5-10.9-10.6-15.9-10.3-1.4-17 5.3-25.5 7.9-7.3-6.5-14.4-12.4-20.3-20.3 5.3-15 46.4-2.6 25.5-27.3-14.1-8.8-28.2 3.8-40.5 9.7l-16.7-21.2c14.4-8.8 28.8-21.2 46.7-17.6 4.4 7.9 4.7 19.7 13.2 23.8 30.3-.6 51.7-23.5 74.9-41.4-16.2-24.1-29.4-57.3-15-86.3 11.5-29.1 41.5-53.7 42.9-85.9l23.6-.1"/><path d="M655.7 763c1.5 13.4-.7 27.2-10.1 41.8-19.1 25.9-44 53.2-32.6 87.2 10.9 34.4 53.8 55.2 51.1 95.2-.3 47.3-55.2 76.7-39.7 129.5l-27.3-8.8c-10.9-47 39.1-71.1 39.6-114.5 7.1-50-56.7-68.5-52.9-117.2-.3-37 32.3-60.5 46.7-91.6 2.3-7 3.3-14.3 3-21.6h22.2"/><path d="M806.7 763c-1.8 12.3.4 24.8 6.3 35.7 19.1 30.2 52.6 62.3 31.7 101.4-22 32.3-58.7 63.7-44 105.7 16.2 36.7 49.9 71.7 31.7 117.2l-27.3 6.2c21.7-44.4-10.9-88.4-29.9-126.9-23.2-55.2 49.9-81.7 51.1-132.2-.3-32.6-34.9-51.1-42.3-81.1-15-12.7-30.6 5-48.5 1.7-13.2 2.7-33.5-18.2-41.4 4.4-9.4 33.2-52.3 57.6-33.5 96.9 17.9 35 61.1 60.5 46.7 105.8-12.9 42.3-55.5 82.5-29.1 131.3-10.9-3.5-31.1 3.2-30.8-14.1-16.7-59 54.6-93.4 32.6-152.4-10.3-36.1-57-56.1-46.7-99.6 7.6-35.8 47.7-60.8 42.1-100h131.3"/><path d="M849.2 763c-.6 10 1.5 20 7.9 29.5 20.3 32.9 55.5 69 35.3 111.9-22.9 34.4-62.9 69.3-40.5 114.5 16.2 27 41.1 54 34.4 87.2l-26.4 8.8c17.6-62-68.7-98.4-32.6-160.4 22.3-33.2 62.2-64.3 39.7-108.4-13.5-27.3-41.4-43.4-40.5-77.5l1-5.7 21.7.1"/><path d="M892.9 763c-.1 8.8 2.1 17.5 6.5 25.1 19.1 34.4 53.5 67 40.5 110.1-3.6 13.2-14.1 23.5-16.7 37 22.3 18.5 43.5 39.3 73.1 40.5 10.6-6.7 4.7-36.7 26.4-22.9l31.7 15.9c-2.3 8.5-9.4 16.2-15.8 22-12-5.9-23.8-12.9-38.8-12.4-4.4 4.7-8.2 10-7.9 16.7 10.6 1.7 20.2 6.2 29.1 12.3-4.1 8.8-12 14.4-19.4 21.2l-24.7-8.8c-4.1 5.9-12.7 12.1-9.7 18.5 5.6 2.4 11.7 5.6 15.8 9.7-10.9 11.7-24.7 19.3-37.9 27.3-11.4-37.3-49.1-63.5-45.8-106.6l-1.7-1.8c-8.8 10-5.9 25.8-5.3 38.7 10.6 27 35.8 47.9 39.7 77.5-4.4 7.6-14.4 9.1-22 12.3.9-53.4-80.2-93.9-28.2-148 17.3-26.5 46.4-51.7 36.1-88.1-10.6-35.2-48-57-47.7-96.5l22.7.3"/><path d="M1127.6 763c.3 9.9 1.2 18.5-2.7 28.7-40.2 11.4-66.7-31.1-105.7-24.7l4.4 22.1c36.1 1.2 58.7 35.8 96 34.3-5.3 10.6 2.4 38.5-21.1 27.3-24.4-5.9-42-27.3-68.7-27.3-3.2 5.9-1.2 14.1-1.7 21.2 28.2 4.4 48.5 28.2 76.6 32.6-2.7 9.7-5.3 20.5-13.2 26.4-22.9-5.6-40.8-26.2-65.2-25.6l-4.4 20.3c23.2.6 38.2 21.2 59 27.3.6 8.6-7 16.2-11.4 23.8-18.5-5.6-32.6-21.4-53.7-20.3-.3-8 4.4-17 2.6-25.5-23.8 7.1-39.6-15-57.2-28.2-.6-43.4-46.2-71.9-48.6-112.4h215"/><path d="M353.6 763c-.3-3.9-.5-6.6-.5-6.6 36.4 14.1 68.4-12 99.6-25.5 7.9-2.4 20.3 1.7 23.8-7.1-.3-6.8 12-14.7 1.8-19.4-45.5-6.2-75.8 48.8-122.5 23.8l-3.5-7.1C361.9 588.4 436.8 460 561 396.9c111-63.5 281.4-58.1 385.9 15.9 55.5 34.1 108.7 90.2 137.5 147.2 27.6 49.9 40.2 106 44 165.6-48.2 36.4-80.5-34.3-129.5-18.5 2.7 7.6 4.1 15.6 9.7 22 43.5-.3 73.4 45.2 118.9 27.3v6.6h-215c-.5-8.9 1.1-17.8 4.4-26 15-34.7 10.3-79.6-6.2-111.9-5-8.5-13.8-15.2-22-20.3 12.1 25.6 26.7 55.8 19.4 87.2-.8 24.3-15.1 47.5-15.3 70.9h-22.7l.1-3.1c8.5-41.1 34.4-84.9 13.2-128.7-5.9-17.6-19.1-37.6-37-44.9 26.7 30.6 37.3 80.5 22 121.6-7.7 16.4-18.3 35.8-19.4 55h-22c9.1-48.4 45.9-94.1 20.2-145.8-6.8-15.3-20.3-30.8-35.2-39.7l-.9.9c30 29.1 39.1 77 22.9 115.4-7.6 22.6-24.1 45-27.5 69.2H675.3c-.5-3.4-1.3-6.8-2.4-10.1-15-42.3-45.5-84.6-27.3-133.9 5-14.1 15-26.1 23.8-38.8-29.1 15.6-43.8 48.5-43.2 81.9-1.3 36.4 25.7 67.6 29.5 100.9h-22.1c-1.8-34.4-32.8-61.3-27.6-100 1.7-28.5 11.4-53.5 29.9-74.9-25.5 10.3-36.1 39.6-43.2 64.3-12.2 39.6 17 75.1 19.9 110.6h-23.8c.3-8-1.1-15.9-4.1-23.4-15.8-40.8-21.4-96 8.8-132.1-16.5 4.4-26.1 24.9-31.7 40.5-18.2 39.9 4.8 76.8 5.6 115l-213.8.2"/><path class="st1" d="m761 422.4 47.6 2.7-.9 4.4-35.2 33.5c6.2 15 12.3 30 18.5 44.9 26.7-15.5 52.3-34.9 84.6-37-2.9 17.1-15.9 35-14.1 52 20-5.6 38.2-17.9 60-16.7-13.5 25-33.2 50-34.4 81.1-29.7-11.1-60.2-24.7-93.4-29.9-70.8-12.1-138.9 3.5-197.4 31.7-5-29.7-19.4-55.5-37-80.2 10.6-3.5 23.5 2.3 34.4 5.3 9.1 2.6 16.7 8.8 26.4 10.6 1.7-17.6-8.5-35-15.8-51.1 5-3.8 12.9-.9 18.5.9 23.2 8.8 44 22.6 65.2 35.2 10.9-12.7 14.9-30.9 19.4-47.6l-36.1-32.6V426l47.6-2.7c7.9-15 13.2-30.8 21.1-45.8 9.6 13.2 12.8 30.5 21 44.9"/><path d="m777.8 518.5-4.4 4.4c-22-2.3-45.2.6-66.1.9-2.3-2.4-7-5.9-2.7-8.8l33.5-25.6c13.9 7.9 28.5 18.2 39.7 29.1"/><path class="st1" d="M190.1 530.8c-18.2 14.1-31.1 34.7-27.3 58.2 2.1 3.5 4.1 8.8 8.8 9.7 14.7 0 19.7-15.8 26.4-25.5 7.9-17.6 23.2-36.7 44.1-38.8 17.9-1.2 33.2 3.5 45 17.6 17.9 21.5 14.7 56.1 6.2 81.1-8 18.5-20.3 37.3-37.9 49.3L223.6 663c17.3-12 35.6-31.7 37.9-53.7 0-7.9-1.7-18.5-11.5-19.4-20.3 5.9-22.3 30.3-36.1 44.1-10.6 10.9-23.8 19.1-40.5 16.7-15.6-.9-28.8-10.6-37.9-22.9-17.3-26.4-8.8-65.2 1.8-85.5 6.5-11.5 14.1-22.9 24.7-31.7 8.7 4.9 19 12.6 28.1 20.2m1150.7 22.9c15.3 24.7 21.2 57.2 13.2 87.2l-32.6-1.8c4.4-19.7 7.6-44.3-6.2-60.8-4.1-5-11.4-7.9-16.7-5.3-17.9 20 1.5 48.8-9.7 71.4-5.3 10.3-13.2 22.6-24.7 27.3-18.5 7.1-41.4 3.5-55.5-10.6-27.6-28.8-40.5-73.4-22.9-111h34.4c-5.9 14.7-10 35.5-4.4 52.9 2.9 7.3 6.5 16.7 15 19.4 28.2 1 9.1-39.4 15.8-58.2 2.7-14.1 10.3-28.8 24.7-35.2 26.4-12.9 57.3 1.8 69.6 24.7m-864.3 55.5c28.5-10.9 67.2-29.7 97.8-9.7-6.5 9.1-19.1 14.1-28.2 22-15 14.7-33.2 32.6-44 51.1-36.7-7.4-66.1 14.1-96.9 26.4-11.7 2.3-27.3 3.5-37-4.4 29.1-47.9 70.2-91.9 59.9-155.1 3.2-5.6 8.8-.9 12.3.9 22.5 17.7 33.4 42.1 36.1 68.8m579.7-62.5c-11.4 59.9 29.7 102.2 57.3 148-31.7 21.2-61.7-11.5-91.6-19.4-13.2-2-28.8-3.8-41.4-1.8-18.2-28.2-42.6-54.6-72.2-70.5 1.7-9.7 15.3-10.3 24.7-11.5 26.1-2.6 49 8.2 70.5 19.4 4.1-9.7 5.9-20.6 8.8-30.8 7.1-17.3 20.9-35 38.8-42.3 3.7.6 6.3 4.8 5.1 8.9m-244.9 54.6c.9 5 5.9 9.4 2.7 15-17.3-5.3-37-2.4-53.7 4.4-15 11.2-12.6 34.1-8.8 50.2l4.4 3.5c7.3-1.8 7.6-11.2 14.1-13.2 10.9 2.7 25.8 6.5 36.1 0 9.1.3 8.8 12.9 9.7 19.4-6.5 34.1-20.8 71.1-55.5 87.2-14.4 7.1-32.9 2.3-46.7-2.7-34.1-20.3-53.2-60.5-49.3-96.9 2.7-5.6 6.8-10 13.2-6.2 13.8 9.4 28.7-7.3 41.4 4.4 15.3-6.8 6.2-25.5 6.2-39.6-12.3-15.9-33.5-13.5-52-12.4-8.2-5 .6-12.9 2.6-18.5 20-28.2 58.2-28.8 91.6-24.7 17 4.5 35.8 11.9 44 30.1"/><path class="st1" d="M709.1 641.8v3.5c-10-.9-26.1-10.9-35.2 1.7-5.9 2.6-6.7-4.1-6.2-7.9-1.1-3.6.9-7.5 4.6-8.6.2-.1.5-.1.7-.2 13.7-3.2 29.3.9 36.1 11.5m104.8-4.4c-.3 3.5.6 7.6-3.5 9.7-11.2-4.4-26.7-10.6-37.9-1.7-6.5-13.8 11.5-10.9 17.6-15 9.1-.3 19.7-.6 23.8 7"/><path d="M757.5 693.8c-5.3 11.2-22.3 4.1-31.7 6.2-3.2-1.2-1.2-4.7-1.8-7 9.4-6.6 26.2-7.4 33.5.8m14.1 24.7c-7 10.6-17.6 23.8-31.7 22.9-15.9 1.2-19.4-11.8-30.9-19.4l-.9-5.3c21.2 3.2 44.4-.8 63.5 1.8"/><path class="st1" d="M222.7 855.9c17.8-.1 34.9.6 53.2.2L235 890.3c3.9 14.4 7.3 30.9 12.3 50.2l-40.5-28.2c-17 7.8-27.3 17.3-44.9 26.4l14.1-48.5c-13.4-10.9-28.3-21.3-41-32.5 18.4-.5 34.6.3 52.4-.1 8.2-15.4 11.9-33.1 19.4-48.5l15.9 46.8m208.8 231.8c3.5 8.5 8.7 15.2 10.8 28-9.4 5.9-21.2 10.8-32 16-2.6-19.4-19.7-38.2-38.8-43.2-15.8-3.9-33.2 3.6-44.9 17.6-9.7 11.4-12.7 27.9-9.7 42.3 7.6 19.9 28.8 35 50.2 35l6.2.2c-4.4 11-9.7 21.6-15.8 31.8-35.6-1.2-71.4-22.1-84.6-56.4-11.4-27.9-6.4-64 11.5-87.2 21.7-27.6 56.4-35.2 89.9-28.2 22.5 6.2 43.7 23.2 57.2 44.1m684.6-18.5 2.2 2.2-52.9 49.2 17.6 21.3c15-11.7 31.1-24.2 47.1-39.2 8.2 6.9 14.9 15 22.6 24.1-15.8 15.1-32.3 25.4-46.1 39.8 5.9 7.4 10.4 15.7 19.4 24.5l57-47 24.4 25.1c-32.3 30.7-67.5 62.3-101 86.8l-99.6-128.6c31.7-26.4 58.4-50.5 86.4-78.4 8.6 5.5 14.7 12.8 22.9 20.2m-560.4 108.3c17.9 22.9 18.2 58.4 7 84.6-12.5 26.6-36.4 43.5-62.6 49.4-31.7 5-61.7-5.3-84.6-27.3-20.3-22.3-31.4-54.3-21.2-85.5 9.1-33.8 42-58.4 75.8-62.6 35.1-2 67.4 14.1 85.6 41.4"/><path class="st0" d="M518.8 1198.7c10 23.2-1.5 46.1-17.6 62.5-10.3 8.2-23.7 13.4-37.2 8.4-8.5-4.1-19-11.6-21.4-20.7-6.5-23.5 4.3-45.5 20.7-61.7 10-8.2 24.4-12.9 37-7.1 7.6 2.4 16.1 11 18.5 18.6"/><path class="st1" d="M869.4 1236c-24.7 3.6-48.3 6.5-71.8 10.3 2.4 11.6 1.3 19.3 3.1 28.2 22-.4 41.3-4.3 61.8-7l6 37.7c-20.9 3.9-42 6.9-63.2 9.1.6 17 2.9 37.9 2.6 56.7-17.3 2.7-36 4.6-53.9 3.4l-10.6-160.6-.1-3.4c39.5-3.8 79-8.8 118.2-15.1 1.6 11.9 5.3 25.8 7.9 40.7m134.8-72.2 1.5 2.8-64.5 32.4 10.9 25.4c19.7-7.5 36.7-14.5 56.2-24.4 6 9 10.1 18.5 15 29.5-17.7 9.5-36.1 16.8-55.4 25.3 3.6 8.7 5.4 15 11.7 29l67.9-29.1 16.3 31c-39.6 20.4-82.3 40.8-121.3 54.9L883 1188.9c37.9-16.5 70.3-32.1 104.9-51 6.6 7.7 10.5 16.5 16.3 25.9m-285 90.4c-24.6-4.1-48-8.5-71.6-12-1.3 11.8-4.6 18.9-5.6 27.8 21.1 6.3 40.6 8.4 61 12.2l-5.7 37.8c-21.1-2.7-42.1-6.2-63-10.6-4.6 16.4-8.8 36.9-14.7 54.8-17.3-2.8-35.7-6.7-52.4-13.2l38.8-156.2.9-3.2c39.1 8.4 79.1 15.8 117.2 21.5-2.2 11.8-2.9 26.2-4.9 41.1m571-398c17.8-.1 33.6.4 53.2.2l-40.9 34.2c4 14.4 7.3 30.9 12.3 50.2l-40.5-28.2c-17.1 7.8-27.3 17.3-45 26.4l14.1-48.5c-13.4-10.9-28.4-21.4-40.9-32.5 18.4-.5 34.6.3 52.4-.1 7.2-16 12.3-31.5 19.4-48.5l15.9 46.8"/><path d="M1476.9 750c0 414-330.8 750-738.4 750S0 1164 0 750 330.8 0 738.4 0s738.5 336 738.5 750z" style="fill:none"/><path d="M1218.3 1351.6c23 0 42.6 17.9 42.6 42.1 0 24.4-19.7 42.3-42.6 42.3-23.2 0-42.9-17.8-42.9-42.3 0-24.2 19.7-42.1 42.9-42.1zm0 6.8c-19.6 0-34.7 15.1-34.7 35.3 0 20.6 15.1 35.5 34.7 35.5 19.3 0 34.5-14.9 34.5-35.5-.1-20.1-15.2-35.3-34.5-35.3zm-9 59.7h-7.5v-48.7h18.6c11.6 0 17.3 4.3 17.3 13.9 0 8.8-5.5 12.5-12.7 13.4l13.9 21.4h-8.2l-13-21.2h-8.4v21.2zm0-27.2h8.9c9.1 0 12-2.6 12-8 0-4.7-2.3-7.3-10.8-7.3h-10.1v15.3z"/></svg>