<svg width="145" height="170" viewBox="0 0 145 170" fill="none" xmlns="http://www.w3.org/2000/svg">
<path d="M72.2515 0.593018C43.7169 0.593018 18.1394 13.5828 0.395216 34.3327L72.2515 169.292L144.108 34.3327C126.444 13.6672 100.786 0.593018 72.2515 0.593018ZM32.2869 42.7676C32.2869 33.4892 39.4806 25.8978 48.2728 25.8978C57.0649 25.8978 64.2586 33.4892 64.2586 42.7676C64.2586 52.0461 57.0649 59.6375 48.2728 59.6375C39.4806 59.6375 32.2869 52.0461 32.2869 42.7676ZM72.2515 110.247C63.4593 110.247 56.2657 102.656 56.2657 93.3772C56.2657 84.0988 63.4593 76.5073 72.2515 76.5073C81.0437 76.5073 88.2373 84.0988 88.2373 93.3772C88.2373 102.656 81.0437 110.247 72.2515 110.247Z" fill="white"/>
</svg>
